<?xml version="1.0" encoding="utf-8"?>
<!-- Generator: Adobe Illustrator 27.5.0, SVG Export Plug-In . SVG Version: 6.00 Build 0)  -->
<svg version="1.1" id="Layer_1" xmlns="http://www.w3.org/2000/svg" xmlns:xlink="http://www.w3.org/1999/xlink" x="0px" y="0px"
	 viewBox="0 0 400 400" style="enable-background:new 0 0 400 400;" xml:space="preserve">
<style type="text/css">
	.st0{fill:#FFFFFF;}
</style>
<path class="st0" d="M312.7,344.4c-4.4,0-8-3.6-8-8c0-3.2,1.9-6.1,4.8-7.3c62.9-27.5,91.5-100.7,64.1-163.5
	c-13.3-30.5-38.3-54.4-69.4-66.3c-4.1-1.6-6.1-6.3-4.5-10.4c1.6-4.1,6.2-6.1,10.2-4.6c72.3,27.6,108.6,108.6,81,180.9
	c-13.4,35.2-40.4,63.5-74.9,78.5C314.9,344.2,313.8,344.4,312.7,344.4z"/>
<path class="st0" d="M8.4,135.7c-4.4,0-8-3.6-8-8c0-0.5,0-1,0.1-1.4C14,53.1,78.1,0,152.8,0c48.1-0.1,93.6,22.3,122.9,60.5
	c2.7,3.5,2,8.5-1.5,11.2c-3.5,2.7-8.5,2-11.2-1.5C236.7,36,196,15.9,152.8,16c-67,0-124.4,47.6-136.5,113.2
	C15.5,133,12.2,135.7,8.4,135.7z"/>
<path class="st0" d="M258.6,125.2c-1,0-2.1,0-3.1,0.1c-13.3-43.9-53.8-74-99.7-73.9C98.4,51.4,51.7,97.9,51.7,155c0,0.3,0,0.7,0,1
	C12.1,169-9.4,211.6,3.5,251.2c6.9,21,22.6,37.9,43.1,46.3v-17.8c-28.7-15.8-39.1-51.9-23.3-80.6c8.1-14.8,22.2-25.4,38.7-29.2
	l6.7-1.6l-0.5-6.9c-0.2-2.5-0.3-4.5-0.3-6.5c0-48.3,39.4-87.6,87.9-87.6c41-0.1,76.5,28.2,85.7,68.1l1.6,7l7.2-0.8
	c2.7-0.3,5.5-0.5,8.3-0.5c40.4,0,73.3,32.7,73.3,72.9c0.1,21.5-9.4,41.9-25.9,55.7v19.8c26.2-16.1,42.1-44.7,42-75.5
	C347.9,165.2,307.8,125.2,258.6,125.2z"/>
<path class="st0" d="M227.9,362.6H125.8v-16h102.1V362.6z M170.7,289.6l-35.9-35.9L123.6,265l24.6,24.6l-24.6,24.6l11.3,11.3
	L170.7,289.6z M265.7,382.9V234.7c0-10-8.1-18-18-18H104.5c-10,0-18,8.1-18,18v148.2c0,10,8.1,18,18,18h143.2
	C257.7,400.9,265.7,392.8,265.7,382.9L265.7,382.9z M247.7,232.7c1.1,0,2,0.9,2,2v148.2c0,1.1-0.9,2-2,2H104.5c-1.1,0-2-0.9-2-2
	V234.7c0-1.1,0.9-2,2-2L247.7,232.7z"/>
</svg>
